<svg height="128" width="128" xmlns="http://www.w3.org/2000/svg"><rect x="2" y="2" width="124" height="124" rx="14" fill="#363d52" stroke="#212532" stroke-width="8"/><g transform="scale(.101) translate(122 122)"><g fill="#fff"><path d="M105 673v33q-7 9-19 17l-192 151q-20 12-48 17v-8l186-137 9-7h-221l-8 3v-63q10-9 19-17l192-152q24-13 46-17v8l-186 137-9-7zm156 124l-187-137 9-7h221l8 3v63q-10 9-20 17l-192 152q-22 13-45 17v-8l186-137 9-7zm-155-250l-187-137 9-7h221l8 3v63q-10 9-20 17l-192 152q-22 13-45 17v-8l186-137 9-7z"/></g></g></svg>